<?xml version="1.0" encoding="UTF-8"?>
<svg version="1.1" xmlns="http://www.w3.org/2000/svg" width="210" height="240">
<path d="M0 0 C0.99386719 0.00902344 1.98773438 0.01804688 3.01171875 0.02734375 C4.15060547 0.04474609 4.15060547 0.04474609 5.3125 0.0625 C5.33755615 1.17810303 5.3626123 2.29370605 5.38842773 3.44311523 C5.48233421 7.5674259 5.58259514 11.6915615 5.68481445 15.81567383 C5.728227 17.6033927 5.76989729 19.39115474 5.80981445 21.17895508 C5.8673646 23.74313391 5.93110203 26.30709412 5.99609375 28.87109375 C6.01280624 29.6752623 6.02951874 30.47943085 6.04673767 31.30796814 C5.80470696 34.98919998 5.80470696 34.98919998 7.3125 38.0625 C9.6225 38.3925 11.9325 38.7225 14.3125 39.0625 C14.8075 46.9825 14.8075 46.9825 15.3125 55.0625 C20.34883888 54.60377156 20.34883888 54.60377156 22.55078125 51.33984375 C23.23527344 50.23769531 23.91976562 49.13554688 24.625 48 C25.67107422 46.34291016 25.67107422 46.34291016 26.73828125 44.65234375 C27.25777344 43.79769531 27.77726563 42.94304688 28.3125 42.0625 C34.0625 43.9375 34.0625 43.9375 36.3125 45.0625 C35.67062082 50.19753344 34.62977753 55.0568454 33.3125 60.0625 C35.03748018 60.93457731 35.03748018 60.93457731 37.3125 61.0625 C39.99610715 59.42569055 39.99610715 59.42569055 42.5625 57.125 C43.45453125 56.37347656 44.3465625 55.62195312 45.265625 54.84765625 C46.27882812 53.96400391 46.27882812 53.96400391 47.3125 53.0625 C50.67841866 54.50503657 52.82297079 56.39514727 55.3125 59.0625 C54.53712891 60.18398437 54.53712891 60.18398437 53.74609375 61.328125 C53.08738281 62.31296875 52.42867187 63.2978125 51.75 64.3125 C50.75806641 65.77429688 50.75806641 65.77429688 49.74609375 67.265625 C47.87200433 70.16585706 47.87200433 70.16585706 49.3125 74.0625 C54.5925 72.0825 59.8725 70.1025 65.3125 68.0625 C66.6325 70.0425 67.9525 72.0225 69.3125 74.0625 C67.86468207 77.50678265 66.03555391 79.42380962 63.1875 81.8125 C62.46304688 82.42609375 61.73859375 83.0396875 60.9921875 83.671875 C60.16074219 84.36023438 60.16074219 84.36023438 59.3125 85.0625 C59.6425 86.7125 59.9725 88.3625 60.3125 90.0625 C61.06015625 89.8459375 61.8078125 89.629375 62.578125 89.40625 C63.56296875 89.1278125 64.5478125 88.849375 65.5625 88.5625 C66.53703125 88.2840625 67.5115625 88.005625 68.515625 87.71875 C71.3125 87.0625 71.3125 87.0625 75.3125 87.0625 C76.3025 89.7025 77.2925 92.3425 78.3125 95.0625 C74.0225 97.7025 69.7325 100.3425 65.3125 103.0625 C65.6425 104.3825 65.9725 105.7025 66.3125 107.0625 C67.23933594 107.19527344 68.16617188 107.32804687 69.12109375 107.46484375 C70.31863281 107.64144531 71.51617187 107.81804687 72.75 108 C73.94496094 108.17402344 75.13992187 108.34804687 76.37109375 108.52734375 C79.3125 109.0625 79.3125 109.0625 80.3125 110.0625 C80.38429964 111.58178038 80.39642007 113.10417482 80.375 114.625 C80.36597656 115.45128906 80.35695312 116.27757813 80.34765625 117.12890625 C80.33605469 117.76699219 80.32445312 118.40507813 80.3125 119.0625 C78.5633503 119.40026684 76.81313855 119.73253671 75.0625 120.0625 C74.08796875 120.248125 73.1134375 120.43375 72.109375 120.625 C69.3125 121.0625 69.3125 121.0625 65.3125 121.0625 C64.95200324 123.42814237 64.95200324 123.42814237 65.3125 126.0625 C67.15957585 127.89950991 67.15957585 127.89950991 69.625 129.25 C70.42550781 129.73855469 71.22601563 130.22710937 72.05078125 130.73046875 C72.79714844 131.17003906 73.54351562 131.60960937 74.3125 132.0625 C75.3025 132.7225 76.2925 133.3825 77.3125 134.0625 C76.82671457 137.18540635 76.3138988 140.05830359 75.3125 143.0625 C70.3625 142.4025 65.4125 141.7425 60.3125 141.0625 C59.9825 142.0525 59.6525 143.0425 59.3125 144.0625 C60.60107013 145.37804021 61.89345891 146.68984097 63.1875 148 C64.26644531 149.09634766 64.26644531 149.09634766 65.3671875 150.21484375 C67.18277192 152.11917999 67.18277192 152.11917999 69.3125 153.0625 C68.71322174 156.41845828 67.46627564 158.44051226 65.3125 161.0625 C61.65077525 160.43571829 58.4306005 159.41798154 55 158 C54.11699219 157.63777344 53.23398438 157.27554688 52.32421875 156.90234375 C51.66035156 156.62519531 50.99648437 156.34804687 50.3125 156.0625 C48.96312044 157.71442483 48.96312044 157.71442483 48.3125 160.0625 C49.612708 162.97398076 49.612708 162.97398076 51.6875 165.8125 C52.35523438 166.79734375 53.02296875 167.7821875 53.7109375 168.796875 C54.23945313 169.54453125 54.76796875 170.2921875 55.3125 171.0625 C53.0625 173.5625 53.0625 173.5625 50.3125 176.0625 C46.3125 176.0625 46.3125 176.0625 44.3828125 174.53125 C43.08850786 173.22135133 41.79682545 171.90885633 40.5078125 170.59375 C37.65474355 168.60370902 35.71500876 168.7910748 32.3125 169.0625 C32.745625 170.29226562 32.745625 170.29226562 33.1875 171.546875 C33.55875 172.62453125 33.93 173.7021875 34.3125 174.8125 C34.68375 175.87984375 35.055 176.9471875 35.4375 178.046875 C36.3125 181.0625 36.3125 181.0625 36.3125 185.0625 C33.6725 186.0525 31.0325 187.0425 28.3125 188.0625 C27.79300781 187.20785156 27.27351562 186.35320312 26.73828125 185.47265625 C26.04089844 184.36792969 25.34351563 183.26320312 24.625 182.125 C23.94050781 181.02285156 23.25601563 179.92070312 22.55078125 178.78515625 C20.34883888 175.52122844 20.34883888 175.52122844 15.3125 175.0625 C14.9825 180.3425 14.6525 185.6225 14.3125 191.0625 C11.6725 191.0625 9.0325 191.0625 6.3125 191.0625 C5.9825 203.9325 5.6525 216.8025 5.3125 230.0625 C0.6925 229.7325 -3.9275 229.4025 -8.6875 229.0625 C-8.82027344 227.60457031 -8.95304687 226.14664063 -9.08984375 224.64453125 C-9.26809062 222.72134132 -9.4464837 220.79816494 -9.625 218.875 C-9.71201172 217.91529297 -9.79902344 216.95558594 -9.88867188 215.96679688 C-9.97568359 215.03544922 -10.06269531 214.10410156 -10.15234375 213.14453125 C-10.230896 212.29093018 -10.30944824 211.4373291 -10.39038086 210.55786133 C-10.69231544 208.0220574 -11.15381375 205.55890053 -11.6875 203.0625 C-14.92247876 203.35614773 -16.31978321 203.65737678 -18.5402832 206.10375977 C-19.10062256 206.97830811 -19.66096191 207.85285645 -20.23828125 208.75390625 C-21.16157227 210.17026367 -21.16157227 210.17026367 -22.10351562 211.61523438 C-23.04227539 213.10506836 -23.04227539 213.10506836 -24 214.625 C-24.64517578 215.62208984 -25.29035156 216.61917969 -25.95507812 217.64648438 C-27.54638357 220.11006095 -29.12296845 222.58186697 -30.6875 225.0625 C-34.9080965 223.7029241 -38.7556098 222.12206153 -42.6875 220.0625 C-42.00215992 214.256803 -40.65526988 208.76170838 -39.125 203.125 C-38.77405273 201.81305664 -38.77405273 201.81305664 -38.41601562 200.47460938 C-37.84344751 198.33624275 -37.26720405 196.19894097 -36.6875 194.0625 C-38.85844459 193.08317347 -38.85844459 193.08317347 -41.6875 193.0625 C-44.09527768 194.71635719 -46.06724727 196.28470773 -48.1875 198.25 C-49.30166472 199.24395902 -50.41624203 200.23745577 -51.53125 201.23046875 C-53.47851394 202.97303537 -55.41408844 204.72604621 -57.34375 206.48828125 C-59.6875 208.0625 -59.6875 208.0625 -61.765625 208.00390625 C-63.98271824 206.91789106 -65.60651776 205.65492626 -67.4375 204 C-68.05109375 203.45214844 -68.6646875 202.90429688 -69.296875 202.33984375 C-69.75578125 201.91832031 -70.2146875 201.49679688 -70.6875 201.0625 C-70.06915737 197.86795234 -68.97899964 195.74613204 -67.11328125 193.09375 C-66.61119141 192.35769531 -66.10910156 191.62164062 -65.59179688 190.86328125 C-64.52679136 189.32392358 -63.45378998 187.79006855 -62.37304688 186.26171875 C-61.87482422 185.52566406 -61.37660156 184.78960937 -60.86328125 184.03125 C-60.39833252 183.36544922 -59.93338379 182.69964844 -59.4543457 182.01367188 C-58.41532479 180.01507148 -58.41532479 180.01507148 -59.55151367 177.81445312 C-59.92638916 177.23630859 -60.30126465 176.65816406 -60.6875 176.0625 C-67.17338375 176.69857542 -72.47075082 179.60071991 -78.23046875 182.44335938 C-79.00261719 182.80623047 -79.77476563 183.16910156 -80.5703125 183.54296875 C-81.26527832 183.88223389 -81.96024414 184.22149902 -82.67626953 184.57104492 C-84.6875 185.0625 -84.6875 185.0625 -86.85205078 184.29272461 C-89.25035371 182.68524277 -90.12418582 180.99116646 -91.4375 178.4375 C-92.07945313 177.21160156 -92.07945313 177.21160156 -92.734375 175.9609375 C-93.04890625 175.33445313 -93.3634375 174.70796875 -93.6875 174.0625 C-91.64754487 172.16479694 -89.60560165 170.26931055 -87.5625 168.375 C-86.70785156 167.57932617 -86.70785156 167.57932617 -85.8359375 166.76757812 C-82.21101755 163.41040794 -78.50971468 160.19346309 -74.6875 157.0625 C-75.1825 154.5875 -75.1825 154.5875 -75.6875 152.0625 C-76.36329102 152.21920166 -77.03908203 152.37590332 -77.73535156 152.53735352 C-80.80066553 153.24260739 -83.86895722 153.9339363 -86.9375 154.625 C-88.53271484 154.9952832 -88.53271484 154.9952832 -90.16015625 155.37304688 C-91.18496094 155.60185547 -92.20976563 155.83066406 -93.265625 156.06640625 C-94.20825195 156.28111572 -95.15087891 156.4958252 -96.12207031 156.71704102 C-98.70597278 157.06498753 -100.26929669 156.99941701 -102.6875 156.0625 C-103.734375 154.35546875 -103.734375 154.35546875 -104.4375 152.25 C-104.67984375 151.56292969 -104.9221875 150.87585938 -105.171875 150.16796875 C-105.6875 148.0625 -105.6875 148.0625 -105.6875 144.0625 C-103.66796875 142.41503906 -103.66796875 142.41503906 -100.875 140.828125 C-99.38613281 139.96767578 -99.38613281 139.96767578 -97.8671875 139.08984375 C-96.81789063 138.50332031 -95.76859375 137.91679687 -94.6875 137.3125 C-93.63820313 136.71050781 -92.58890625 136.10851562 -91.5078125 135.48828125 C-88.90835605 133.99950165 -86.30174256 132.52511056 -83.6875 131.0625 C-84.1825 129.0825 -84.1825 129.0825 -84.6875 127.0625 C-92.9375 125.7425 -101.1875 124.4225 -109.6875 123.0625 C-109.6875 118.4425 -109.6875 113.8225 -109.6875 109.0625 C-101.1075 107.7425 -92.5275 106.4225 -83.6875 105.0625 C-83.6875 103.0825 -83.6875 101.1025 -83.6875 99.0625 C-86.07495873 97.1635946 -88.09370727 95.83950182 -90.75 94.4375 C-91.40677734 94.06882812 -92.06355469 93.70015625 -92.74023438 93.3203125 C-94.05610098 92.58394577 -95.37725059 91.85693701 -96.70361328 91.13964844 C-99.72751294 89.49782647 -102.70438938 87.77710975 -105.6875 86.0625 C-105.19019348 81.08943484 -104.13447666 77.42450187 -101.6875 73.0625 C-92.94817362 74.42301784 -84.32137662 76.14669898 -75.6875 78.0625 C-74.59080801 75.90523707 -74.59080801 75.90523707 -74.6875 73.0625 C-76.56165224 70.53390718 -78.92272265 68.59404642 -81.3125 66.5625 C-82.57619998 65.44868673 -83.83923184 64.33411493 -85.1015625 63.21875 C-85.71032227 62.68894531 -86.31908203 62.15914062 -86.94628906 61.61328125 C-89.2950944 59.52135591 -91.4934742 57.3153694 -93.6875 55.0625 C-90.2225 50.1125 -90.2225 50.1125 -86.6875 45.0625 C-79.81030501 47.19680189 -73.35239855 49.9368043 -66.82421875 52.953125 C-63.75325599 54.03924383 -62.62275053 54.30907553 -59.6875 53.0625 C-59.6875 49.07150583 -59.79734447 48.4011769 -61.83984375 45.3125 C-62.28650391 44.6215625 -62.73316406 43.930625 -63.19335938 43.21875 C-63.90202148 42.15140625 -63.90202148 42.15140625 -64.625 41.0625 C-65.55574937 39.64909242 -66.48171487 38.23252037 -67.40234375 36.8125 C-67.81605225 36.18859375 -68.22976074 35.5646875 -68.65600586 34.921875 C-69.73432653 32.97809034 -70.24840142 31.23308161 -70.6875 29.0625 C-69.45196724 27.85995476 -68.19847661 26.67583768 -66.9375 25.5 C-66.24140625 24.83871094 -65.5453125 24.17742188 -64.828125 23.49609375 C-62.6875 22.0625 -62.6875 22.0625 -60.81054688 22.27539062 C-58.27060765 23.21706083 -56.65067191 24.47983271 -54.578125 26.22265625 C-53.82402344 26.85107422 -53.06992188 27.47949219 -52.29296875 28.12695312 C-51.12701172 29.11598633 -51.12701172 29.11598633 -49.9375 30.125 C-49.14472656 30.78822266 -48.35195312 31.45144531 -47.53515625 32.13476562 C-45.58072671 33.77130602 -43.63183961 35.4139968 -41.6875 37.0625 C-40.0375 36.4025 -38.3875 35.7425 -36.6875 35.0625 C-36.96799194 34.14754761 -36.96799194 34.14754761 -37.25415039 33.21411133 C-38.0979734 30.43785712 -38.92411465 27.65664045 -39.75 24.875 C-40.04455078 23.91529297 -40.33910156 22.95558594 -40.64257812 21.96679688 C-40.91650391 21.03544922 -41.19042969 20.10410156 -41.47265625 19.14453125 C-41.72926025 18.29093018 -41.98586426 17.4373291 -42.25024414 16.55786133 C-42.74747241 13.72024542 -42.53543193 11.80660864 -41.6875 9.0625 C-39.69140625 7.69921875 -39.69140625 7.69921875 -37.25 6.75 C-36.44691406 6.42386719 -35.64382812 6.09773437 -34.81640625 5.76171875 C-32.6875 5.0625 -32.6875 5.0625 -30.6875 5.0625 C-29.1628418 7.08203125 -29.1628418 7.08203125 -27.38671875 9.875 C-26.73896484 10.86757812 -26.09121094 11.86015625 -25.42382812 12.8828125 C-24.06137029 14.99728471 -22.70714101 17.11708238 -21.36132812 19.2421875 C-20.70970703 20.23476563 -20.05808594 21.22734375 -19.38671875 22.25 C-18.50246216 23.63251953 -18.50246216 23.63251953 -17.6003418 25.04296875 C-16.65348511 26.04263672 -16.65348511 26.04263672 -15.6875 27.0625 C-14.0375 27.0625 -12.3875 27.0625 -10.6875 27.0625 C-9.6975 14.1925 -9.6975 14.1925 -8.6875 1.0625 C-5.53819107 0.01273036 -3.29935544 -0.03881595 0 0 Z M-49.26953125 61.59619141 C-63.83338156 76.65653661 -71.11760219 96.5901212 -70.90234375 117.3984375 C-69.57465299 140.04159994 -59.71129023 158.01455184 -43.25 173.3125 C-29.81085476 184.77259303 -13.18502934 190.0625 4.3125 190.0625 C4.6425 181.1525 4.9725 172.2425 5.3125 163.0625 C8.963125 162.4746875 8.963125 162.4746875 12.6875 161.875 C25.61077731 159.53539618 35.21868559 153.90885878 43.390625 143.38671875 C50.883243 132.2579773 53.97958223 119.1831634 51.625 105.8125 C48.44155669 93.01589566 42.10648079 82.84736744 31.3125 75.0625 C22.78544618 70.00794137 15.23535614 68.16503957 5.3125 67.0625 C4.9825 58.1525 4.6525 49.2425 4.3125 40.0625 C-16.2579318 40.0625 -34.44690767 47.13829774 -49.26953125 61.59619141 Z " fill="#0397EE" transform="translate(120.6875,1.9375)"/>
<path d="M0 0 C2.64 0.33 5.28 0.66 8 1 C8.33 6.28 8.66 11.56 9 17 C14.03633888 16.54127156 14.03633888 16.54127156 16.23828125 13.27734375 C16.92277344 12.17519531 17.60726562 11.07304688 18.3125 9.9375 C19.00988281 8.83277344 19.70726562 7.72804688 20.42578125 6.58984375 C20.94527344 5.73519531 21.46476562 4.88054688 22 4 C27.75 5.875 27.75 5.875 30 7 C29.35812082 12.13503344 28.31727753 16.9943454 27 22 C28.72498018 22.87207731 28.72498018 22.87207731 31 23 C33.68360715 21.36319055 33.68360715 21.36319055 36.25 19.0625 C37.14203125 18.31097656 38.0340625 17.55945313 38.953125 16.78515625 C39.62859375 16.19605469 40.3040625 15.60695313 41 15 C44.36591866 16.44253657 46.51047079 18.33264727 49 21 C48.48308594 21.74765625 47.96617187 22.4953125 47.43359375 23.265625 C46.77488281 24.25046875 46.11617187 25.2353125 45.4375 26.25 C44.77621094 27.22453125 44.11492187 28.1990625 43.43359375 29.203125 C41.55950433 32.10335706 41.55950433 32.10335706 43 36 C50.92 33.03 50.92 33.03 59 30 C60.98 32.97 60.98 32.97 63 36 C61.55218207 39.44428265 59.72305391 41.36130962 56.875 43.75 C56.15054688 44.36359375 55.42609375 44.9771875 54.6796875 45.609375 C53.84824219 46.29773438 53.84824219 46.29773438 53 47 C53.495 49.475 53.495 49.475 54 52 C54.74765625 51.7834375 55.4953125 51.566875 56.265625 51.34375 C57.25046875 51.0653125 58.2353125 50.786875 59.25 50.5 C60.22453125 50.2215625 61.1990625 49.943125 62.203125 49.65625 C65 49 65 49 69 49 C69.99 51.64 70.98 54.28 72 57 C67.71 59.64 63.42 62.28 59 65 C59.33 66.32 59.66 67.64 60 69 C60.92683594 69.13277344 61.85367188 69.26554687 62.80859375 69.40234375 C64.00613281 69.57894531 65.20367187 69.75554687 66.4375 69.9375 C67.63246094 70.11152344 68.82742187 70.28554687 70.05859375 70.46484375 C73 71 73 71 74 72 C74.07179964 73.51928038 74.08392007 75.04167482 74.0625 76.5625 C74.05347656 77.38878906 74.04445313 78.21507813 74.03515625 79.06640625 C74.02355469 79.70449219 74.01195312 80.34257813 74 81 C72.2508503 81.33776684 70.50063855 81.67003671 68.75 82 C67.77546875 82.185625 66.8009375 82.37125 65.796875 82.5625 C63 83 63 83 59 83 C58.63950324 85.36564237 58.63950324 85.36564237 59 88 C60.84707585 89.83700991 60.84707585 89.83700991 63.3125 91.1875 C64.11300781 91.67605469 64.91351563 92.16460937 65.73828125 92.66796875 C66.48464844 93.10753906 67.23101562 93.54710937 68 94 C69.485 94.99 69.485 94.99 71 96 C70.51421457 99.12290635 70.0013988 101.99580359 69 105 C64.05 104.34 59.1 103.68 54 103 C53.505 104.485 53.505 104.485 53 106 C54.28857013 107.31554021 55.58095891 108.62734097 56.875 109.9375 C57.59429687 110.66839844 58.31359375 111.39929688 59.0546875 112.15234375 C60.87027192 114.05667999 60.87027192 114.05667999 63 115 C62.40072174 118.35595828 61.15377564 120.37801226 59 123 C55.33827525 122.37321829 52.1181005 121.35548154 48.6875 119.9375 C47.36298828 119.39416016 47.36298828 119.39416016 46.01171875 118.83984375 C45.01591797 118.42412109 45.01591797 118.42412109 44 118 C42.65062044 119.65192483 42.65062044 119.65192483 42 122 C43.300208 124.91148076 43.300208 124.91148076 45.375 127.75 C46.04273438 128.73484375 46.71046875 129.7196875 47.3984375 130.734375 C47.92695313 131.48203125 48.45546875 132.2296875 49 133 C46.75 135.5 46.75 135.5 44 138 C40 138 40 138 38.0703125 136.46875 C36.77600786 135.15885133 35.48432545 133.84635633 34.1953125 132.53125 C31.34224355 130.54120902 29.40250876 130.7285748 26 131 C26.28875 131.81984375 26.5775 132.6396875 26.875 133.484375 C27.24625 134.56203125 27.6175 135.6396875 28 136.75 C28.37125 137.81734375 28.7425 138.8846875 29.125 139.984375 C30 143 30 143 30 147 C27.36 147.99 24.72 148.98 22 150 C21.22076172 148.71802734 21.22076172 148.71802734 20.42578125 147.41015625 C19.72839844 146.30542969 19.03101563 145.20070312 18.3125 144.0625 C17.62800781 142.96035156 16.94351563 141.85820312 16.23828125 140.72265625 C14.03633888 137.45872844 14.03633888 137.45872844 9 137 C8.67 142.28 8.34 147.56 8 153 C5.36 153 2.72 153 0 153 C-0.495 153.99 -0.495 153.99 -1 155 C-2.09282967 151.72151099 -2.1293042 149.28559684 -2.1328125 145.8359375 C-2.13410156 144.63195312 -2.13539062 143.42796875 -2.13671875 142.1875 C-2.13285156 140.929375 -2.12898438 139.67125 -2.125 138.375 C-2.12886719 137.10914063 -2.13273437 135.84328125 -2.13671875 134.5390625 C-2.13542969 133.33765625 -2.13414063 132.13625 -2.1328125 130.8984375 C-2.13168457 129.79161621 -2.13055664 128.68479492 -2.12939453 127.54443359 C-2 125 -2 125 -1 124 C0.75421456 123.68757671 2.50948685 123.38007918 4.26928711 123.10083008 C17.46372447 120.96588959 27.64652305 116.24101476 36.01171875 105.390625 C43.53719389 94.22073737 46.67856852 81.18588911 44.3125 67.75 C41.29548288 55.62238512 35.46891766 45.21704945 25 38 C17.23603472 33.48460824 9.76998951 30.98937201 0.8203125 30.24609375 C-1 30 -1 30 -2 29 C-2.2538237 24.71443207 -2.185229 20.41719147 -2.1875 16.125 C-2.19974609 14.91457031 -2.21199219 13.70414063 -2.22460938 12.45703125 C-2.22654297 11.29816406 -2.22847656 10.13929687 -2.23046875 8.9453125 C-2.23457764 7.87812988 -2.23868652 6.81094727 -2.24291992 5.71142578 C-2 3 -2 3 0 0 Z " fill="#C8030B" transform="translate(127,40)"/>
<path d="M0 0 C3.50485622 1.8550808 5.4047941 3.5760009 6.8046875 7.23828125 C7.05534381 10.26620947 6.89426367 13.19269153 6.8046875 16.23828125 C2.5146875 16.23828125 -1.7753125 16.23828125 -6.1953125 16.23828125 C-6.1953125 13.26828125 -6.1953125 10.29828125 -6.1953125 7.23828125 C-7.1853125 7.73328125 -7.1853125 7.73328125 -8.1953125 8.23828125 C-8.1953125 17.14828125 -8.1953125 26.05828125 -8.1953125 35.23828125 C-7.5353125 35.56828125 -6.8753125 35.89828125 -6.1953125 36.23828125 C-6.1953125 33.26828125 -6.1953125 30.29828125 -6.1953125 27.23828125 C-6.8553125 27.23828125 -7.5153125 27.23828125 -8.1953125 27.23828125 C-8.1953125 24.59828125 -8.1953125 21.95828125 -8.1953125 19.23828125 C-3.2453125 19.23828125 1.7046875 19.23828125 6.8046875 19.23828125 C6.8046875 27.15828125 6.8046875 35.07828125 6.8046875 43.23828125 C3.13802083 43.23828125 -0.52864583 43.23828125 -4.1953125 43.23828125 C-5.1853125 43.73328125 -5.1853125 43.73328125 -6.1953125 44.23828125 C-11.4156469 44.63984543 -14.79460944 44.13874463 -19.1953125 41.23828125 C-22.13159328 37.32091882 -22.57958038 34.42669118 -22.59375 29.58203125 C-22.59761719 28.31230469 -22.60148437 27.04257813 -22.60546875 25.734375 C-22.59386719 24.41566406 -22.58226562 23.09695312 -22.5703125 21.73828125 C-22.58191406 20.41957031 -22.59351563 19.10085937 -22.60546875 17.7421875 C-22.60160156 16.47246094 -22.59773438 15.20273438 -22.59375 13.89453125 C-22.59036621 12.73759766 -22.58698242 11.58066406 -22.58349609 10.38867188 C-22.15387909 6.90201913 -21.27619646 5.04102827 -19.1953125 2.23828125 C-13.71233313 -1.73687879 -6.35605612 -2.20539314 0 0 Z " fill="#0297F0" transform="translate(81.1953125,95.76171875)"/>
<path d="M0 0 C9.24 0 18.48 0 28 0 C28 2.97 28 5.94 28 9 C25.69 9 23.38 9 21 9 C21 20.22 21 31.44 21 43 C16.38 43 11.76 43 7 43 C7 31.78 7 20.56 7 9 C4.69 9 2.38 9 0 9 C0 6.03 0 3.06 0 0 Z " fill="#0895E8" transform="translate(133,96)"/>
<path d="M0 0 C7.26 0 14.52 0 22 0 C22 2.97 22 5.94 22 9 C19.03 9 16.06 9 13 9 C13 11.31 13 13.62 13 16 C14.7015625 15.9690625 14.7015625 15.9690625 16.4375 15.9375 C20 16 20 16 21 17 C21.14115161 19.67058851 21.04247107 22.32432238 21 25 C18.36 25 15.72 25 13 25 C13 30.94 13 36.88 13 43 C8.71 43 4.42 43 0 43 C0 28.81 0 14.62 0 0 Z " fill="#0696EB" transform="translate(109,96)"/>
<path d="M0 0 C4.29 0 8.58 0 13 0 C13 14.19 13 28.38 13 43 C8.71 43 4.42 43 0 43 C0 28.81 0 14.62 0 0 Z " fill="#0E95E5" transform="translate(92,96)"/>
<path d="M0 0 C1.31291016 -0.03867188 1.31291016 -0.03867188 2.65234375 -0.078125 C5.65052328 0.33005503 6.17497001 0.92474195 8.0625 3.25 C9.32104492 5.97729492 9.32104492 5.97729492 10.54296875 9.23046875 C10.98447266 10.39384766 11.42597656 11.55722656 11.88085938 12.75585938 C12.33267578 13.97080078 12.78449219 15.18574219 13.25 16.4375 C13.71341797 17.66404297 14.17683594 18.89058594 14.65429688 20.15429688 C15.79763305 23.1835484 16.93336588 26.21543227 18.0625 29.25 C17.12148437 29.08757812 16.18046875 28.92515625 15.2109375 28.7578125 C10.37388643 28.06958452 5.56478074 28.10409737 0.6875 28.125 C-0.20710938 28.12113281 -1.10171875 28.11726563 -2.0234375 28.11328125 C-7.73843693 28.12158794 -13.26870087 28.52263881 -18.9375 29.25 C-17.50752804 25.51790323 -16.06720889 21.78988328 -14.625 18.0625 C-14.01881836 16.47985352 -14.01881836 16.47985352 -13.40039062 14.86523438 C-13.00400391 13.84365234 -12.60761719 12.82207031 -12.19921875 11.76953125 C-11.83787842 10.83214111 -11.47653809 9.89475098 -11.10424805 8.92895508 C-8.38987507 2.69651845 -6.93687152 0.12223562 0 0 Z M-8.9375 11.25 C-8.9375 11.58 -8.9375 11.91 -8.9375 12.25 C-7.2875 12.25 -5.6375 12.25 -3.9375 12.25 C-3.9375 11.92 -3.9375 11.59 -3.9375 11.25 C-5.5875 11.25 -7.2375 11.25 -8.9375 11.25 Z M4.0625 11.25 C8.0625 12.25 8.0625 12.25 8.0625 12.25 Z M-9.9375 13.25 C-9.9375 13.58 -9.9375 13.91 -9.9375 14.25 C-7.9575 14.25 -5.9775 14.25 -3.9375 14.25 C-3.9375 13.92 -3.9375 13.59 -3.9375 13.25 C-5.9175 13.25 -7.8975 13.25 -9.9375 13.25 Z M4.0625 13.25 C4.0625 13.58 4.0625 13.91 4.0625 14.25 C5.7125 14.25 7.3625 14.25 9.0625 14.25 C9.0625 13.92 9.0625 13.59 9.0625 13.25 C7.4125 13.25 5.7625 13.25 4.0625 13.25 Z M-10.9375 15.25 C-10.9375 15.58 -10.9375 15.91 -10.9375 16.25 C-8.9575 16.25 -6.9775 16.25 -4.9375 16.25 C-4.9375 15.92 -4.9375 15.59 -4.9375 15.25 C-6.9175 15.25 -8.8975 15.25 -10.9375 15.25 Z M2.0625 15.25 C2.0625 15.58 2.0625 15.91 2.0625 16.25 C4.7025 16.25 7.3425 16.25 10.0625 16.25 C10.0625 15.92 10.0625 15.59 10.0625 15.25 C7.4225 15.25 4.7825 15.25 2.0625 15.25 Z M-10.9375 17.25 C-6.9375 18.25 -6.9375 18.25 -6.9375 18.25 Z M-11.9375 19.25 C-11.9375 19.58 -11.9375 19.91 -11.9375 20.25 C-10.2875 20.25 -8.6375 20.25 -6.9375 20.25 C-6.9375 19.92 -6.9375 19.59 -6.9375 19.25 C-8.5875 19.25 -10.2375 19.25 -11.9375 19.25 Z M7.0625 19.25 C11.0625 20.25 11.0625 20.25 11.0625 20.25 Z M-12.9375 23.25 C-12.9375 23.58 -12.9375 23.91 -12.9375 24.25 C-11.2875 24.25 -9.6375 24.25 -7.9375 24.25 C-7.9375 23.92 -7.9375 23.59 -7.9375 23.25 C-9.5875 23.25 -11.2375 23.25 -12.9375 23.25 Z M-5.9375 23.25 C-3.9575 24.24 -3.9575 24.24 -1.9375 25.25 C-1.6075 24.59 -1.2775 23.93 -0.9375 23.25 C-2.5875 23.25 -4.2375 23.25 -5.9375 23.25 Z M1.0625 23.25 C1.3925 23.91 1.7225 24.57 2.0625 25.25 C5.6925 25.25 9.3225 25.25 13.0625 25.25 C13.0625 24.59 13.0625 23.93 13.0625 23.25 C9.1025 23.25 5.1425 23.25 1.0625 23.25 Z " fill="#B52A28" transform="translate(105.9375,145.75)"/>
<path d="M0 0 C3.12116637 2.55368158 4.00803728 5.13976771 5 9 C5.265625 12.25390625 5.265625 12.25390625 5.25 15.5625 C5.25515625 16.65691406 5.2603125 17.75132813 5.265625 18.87890625 C5.00162841 21.98086614 4.31501748 24.19776037 3 27 C4.22976562 27.38091797 4.22976562 27.38091797 5.484375 27.76953125 C6.56203125 28.11371094 7.6396875 28.45789063 8.75 28.8125 C10.35101563 29.31716797 10.35101563 29.31716797 11.984375 29.83203125 C14.79040787 30.91882377 16.71986376 32.06852537 19 34 C18.52173342 38.30439925 16.24337843 40.30868598 13 43 C8.119822 45.57820724 3.52875901 46.6789704 -2 46 C-7.18756069 44.25289407 -12.15290822 41.9673134 -16 38 C-16.8125 35.25 -16.8125 35.25 -17 33 C-12.05794084 30.19030139 -8.77587232 28.86247923 -3 29 C-2.34 28.01 -1.68 27.02 -1 26 C-1.474375 25.4328125 -1.94875 24.865625 -2.4375 24.28125 C-5.08689183 20.41313792 -5.34396434 16.61537601 -5 12 C-3.66841659 7.82344687 -1.94808783 3.92313882 0 0 Z M0 4 C-2.03993514 8.92984325 -3.40652968 12.57960425 -3 18 C-2.01 18.495 -2.01 18.495 -1 19 C-0.34 17.68 0.32 16.36 1 15 C1.66 16.65 2.32 18.3 3 20 C3.33 20 3.66 20 4 20 C4.37851209 14.06997733 3.10575375 9.52760359 1 4 C0.67 4 0.34 4 0 4 Z M4 32 C5 34 5 34 5 34 Z M13 34 C12.67 34.66 12.34 35.32 12 36 C12.66 36 13.32 36 14 36 C13.67 35.34 13.34 34.68 13 34 Z M1 38 C0.67 38.99 0.34 39.98 0 41 C-0.99 40.67 -1.98 40.34 -3 40 C-2.67 40.99 -2.34 41.98 -2 43 C-0.68 42.67 0.64 42.34 2 42 C1.67 40.68 1.34 39.36 1 38 Z M-6 40 C-5.67 40.99 -5.34 41.98 -5 43 C-5 42.01 -5 41.02 -5 40 C-5.33 40 -5.66 40 -6 40 Z M4 40 C5 43 5 43 5 43 Z " fill="#AB1E22" transform="translate(110,46)"/>
<path d="M0 0 C3.50485622 1.8550808 5.4047941 3.5760009 6.8046875 7.23828125 C7.05534381 10.26620947 6.89426367 13.19269153 6.8046875 16.23828125 C2.5146875 16.23828125 -1.7753125 16.23828125 -6.1953125 16.23828125 C-6.1953125 13.26828125 -6.1953125 10.29828125 -6.1953125 7.23828125 C-7.1853125 7.73328125 -7.1853125 7.73328125 -8.1953125 8.23828125 C-8.1953125 17.14828125 -8.1953125 26.05828125 -8.1953125 35.23828125 C-7.5353125 35.56828125 -6.8753125 35.89828125 -6.1953125 36.23828125 C-6.1953125 33.26828125 -6.1953125 30.29828125 -6.1953125 27.23828125 C-6.8553125 27.23828125 -7.5153125 27.23828125 -8.1953125 27.23828125 C-8.1953125 24.59828125 -8.1953125 21.95828125 -8.1953125 19.23828125 C-3.2453125 19.23828125 1.7046875 19.23828125 6.8046875 19.23828125 C6.8046875 27.15828125 6.8046875 35.07828125 6.8046875 43.23828125 C4.1646875 43.23828125 1.5246875 43.23828125 -1.1953125 43.23828125 C-1.8553125 42.24828125 -2.5153125 41.25828125 -3.1953125 40.23828125 C-0.5553125 40.56828125 2.0846875 40.89828125 4.8046875 41.23828125 C4.8046875 34.96828125 4.8046875 28.69828125 4.8046875 22.23828125 C4.1446875 22.23828125 3.4846875 22.23828125 2.8046875 22.23828125 C2.4746875 23.55828125 2.1446875 24.87828125 1.8046875 26.23828125 C-0.1753125 26.23828125 -2.1553125 26.23828125 -4.1953125 26.23828125 C-4.1953125 29.53828125 -4.1953125 32.83828125 -4.1953125 36.23828125 C-5.85145907 36.62046892 -7.51988274 36.95223227 -9.1953125 37.23828125 C-10.1953125 36.23828125 -10.1953125 36.23828125 -10.30883789 33.00366211 C-10.30867881 31.57013999 -10.30298657 30.13661213 -10.29296875 28.703125 C-10.2915538 27.94987442 -10.29013885 27.19662384 -10.28868103 26.42054749 C-10.28306626 24.00558565 -10.27051133 21.59071524 -10.2578125 19.17578125 C-10.2527994 17.54231904 -10.24823616 15.90885539 -10.24414062 14.27539062 C-10.23309204 10.2629854 -10.21581756 6.25064884 -10.1953125 2.23828125 C-13.82059818 2.03687649 -16.06032958 2.3805136 -19.1953125 4.23828125 C-19.24482175 8.86473029 -19.28108366 13.49102443 -19.30517578 18.11767578 C-19.31522137 19.6909453 -19.32886031 21.26419621 -19.34619141 22.83740234 C-19.37050346 25.10128377 -19.38180997 27.36491791 -19.390625 29.62890625 C-19.40094757 30.33009583 -19.41127014 31.0312854 -19.42190552 31.75372314 C-19.42274507 35.42391601 -19.21643845 38.11917338 -17.1953125 41.23828125 C-17.8553125 41.23828125 -18.5153125 41.23828125 -19.1953125 41.23828125 C-22.16691667 37.36803205 -22.57968887 34.38960002 -22.59375 29.58203125 C-22.59761719 28.31230469 -22.60148437 27.04257813 -22.60546875 25.734375 C-22.59386719 24.41566406 -22.58226562 23.09695312 -22.5703125 21.73828125 C-22.58191406 20.41957031 -22.59351563 19.10085937 -22.60546875 17.7421875 C-22.60160156 16.47246094 -22.59773438 15.20273438 -22.59375 13.89453125 C-22.59036621 12.73759766 -22.58698242 11.58066406 -22.58349609 10.38867188 C-22.15387909 6.90201913 -21.27619646 5.04102827 -19.1953125 2.23828125 C-13.71233313 -1.73687879 -6.35605612 -2.20539314 0 0 Z " fill="#1992DA" transform="translate(81.1953125,95.76171875)"/>
<path d="M0 0 C1.98 0 3.96 0 6 0 C6 1.65 6 3.3 6 5 C6.66 5 7.32 5 8 5 C8.33 8.3 8.66 11.6 9 15 C10.98 15 12.96 15 15 15 C15.33 16.98 15.66 18.96 16 21 C15.01 21 14.02 21 13 21 C12.67 22.65 12.34 24.3 12 26 C10.56260487 26.02712066 9.12506137 26.04645067 7.6875 26.0625 C6.48673828 26.07990234 6.48673828 26.07990234 5.26171875 26.09765625 C3 26 3 26 0 25 C0 16.75 0 8.5 0 0 Z " fill="#CB020A" transform="translate(127,43)"/>
<path d="M0 0 C0.66 0 1.32 0 2 0 C2.185625 0.94875 2.37125 1.8975 2.5625 2.875 C3.036875 3.90625 3.51125 4.9375 4 6 C7.38824997 7.18241655 7.38824997 7.18241655 11 8 C13.4375 10.125 13.4375 10.125 15 12 C9.02567029 16.20918684 5.34786355 17.6022839 -2 17 C-7.21700618 15.27292934 -12.08141543 12.91858457 -16 9 C-16 8.01 -16 7.02 -16 6 C-15.34 6 -14.68 6 -14 6 C-14 5.34 -14 4.68 -14 4 C-9.545 3.01 -9.545 3.01 -5 2 C-4.67 2.66 -4.34 3.32 -4 4 C-3.01 3.67 -2.02 3.34 -1 3 C-0.67 2.01 -0.34 1.02 0 0 Z M1 9 C0.67 9.99 0.34 10.98 0 12 C-0.99 11.67 -1.98 11.34 -3 11 C-2.67 11.99 -2.34 12.98 -2 14 C-0.68 13.67 0.64 13.34 2 13 C1.67 11.68 1.34 10.36 1 9 Z M-6 11 C-5.67 11.99 -5.34 12.98 -5 14 C-5 13.01 -5 12.02 -5 11 C-5.33 11 -5.66 11 -6 11 Z M4 11 C5 14 5 14 5 14 Z " fill="#A61112" transform="translate(110,75)"/>
<path d="M0 0 C0.66 0.33 1.32 0.66 2 1 C1.67 1.99 1.34 2.98 1 4 C1.99 4.33 2.98 4.66 4 5 C7.8490566 6.69811321 7.8490566 6.69811321 9 9 C5.61981469 10.04005702 2.5219721 10.08004482 -1 10 C-1.33 12.31 -1.66 14.62 -2 17 C1.3 17.33 4.6 17.66 8 18 C8 18.66 8 19.32 8 20 C8.99 20 9.98 20 11 20 C11.33 19.34 11.66 18.68 12 18 C15.3 18 18.6 18 22 18 C22.33 17.01 22.66 16.02 23 15 C23.66 15 24.32 15 25 15 C25.99 17.64 26.98 20.28 28 23 C27.05898437 22.83757812 26.11796875 22.67515625 25.1484375 22.5078125 C20.31138643 21.81958452 15.50228074 21.85409737 10.625 21.875 C9.73039062 21.87113281 8.83578125 21.86726563 7.9140625 21.86328125 C6.58375 21.86521484 6.58375 21.86521484 5.2265625 21.8671875 C4.43846191 21.86831543 3.65036133 21.86944336 2.83837891 21.87060547 C-1.12155164 22.05112871 -5.06020193 22.56224466 -9 23 C-6.03 15.41 -3.06 7.82 0 0 Z " fill="#A71718" transform="translate(96,152)"/>
<path d="M0 0 C5.94 0 11.88 0 18 0 C18 1.98 18 3.96 18 6 C15.69 6 13.38 6 11 6 C10.814375 6.928125 10.62875 7.85625 10.4375 8.8125 C9 12 9 12 5.5 13.6875 C4.345 14.120625 3.19 14.55375 2 15 C1.34 15.99 0.68 16.98 0 18 C0 12.06 0 6.12 0 0 Z " fill="#0297F0" transform="translate(111,97)"/>
<path d="M0 0 C3.63 0 7.26 0 11 0 C11.19208189 5.51722958 11.37083263 11.03466668 11.53710938 16.55273438 C11.5955953 18.43078256 11.65775641 20.30871997 11.72363281 22.18652344 C11.81756025 24.88195632 11.89836718 27.57750816 11.9765625 30.2734375 C12.00875885 31.11619232 12.0409552 31.95894714 12.0741272 32.82723999 C12.12728029 34.88428841 12.073058 36.94356231 12 39 C10 41 10 41 7.92578125 41.0546875 C6.63220703 40.96574219 6.63220703 40.96574219 5.3125 40.875 C-6.42689184 40.72214334 -16.66159176 44.90038296 -26.80932617 50.35742188 C-31.73293877 53 -31.73293877 53 -35 53 C-30.25 49 -30.25 49 -28 49 C-28 48.34 -28 47.68 -28 47 C-27.195625 46.71125 -26.39125 46.4225 -25.5625 46.125 C-22.8673532 45.26737432 -22.8673532 45.26737432 -22 43 C-20.02 43 -18.04 43 -16 43 C-16 42.34 -16 41.68 -16 41 C-13.94921875 40.77213542 -11.8984375 40.54427083 -9.84765625 40.31640625 C-7.98859771 40.18113386 -7.98859771 40.18113386 -7 39 C-1.39 39 4.22 39 10 39 C10 26.46 10 13.92 10 1 C6.7 1 3.4 1 0 1 C0 0.67 0 0.34 0 0 Z " fill="#2E94CE" transform="translate(115,2)"/>
<path d="M0 0 C1.28583984 -0.01160156 1.28583984 -0.01160156 2.59765625 -0.0234375 C5.50232965 0.47118134 6.21432947 1.00008589 7.9375 3.375 C9.359375 6.37109375 9.359375 6.37109375 10.6875 9.8125 C11.36039063 11.51212891 11.36039063 11.51212891 12.046875 13.24609375 C12.9064772 16.26601199 13.08699552 17.52228855 11.9375 20.375 C9.9375 17.375 9.9375 17.375 9.625 14.8125 C9.2846875 13.6059375 9.2846875 13.6059375 8.9375 12.375 C7.7 11.88 7.7 11.88 6.4375 11.375 C5.6125 11.045 4.7875 10.715 3.9375 10.375 C3.125 7.75 3.125 7.75 2.9375 5.375 C0.9575 5.375 -1.0225 5.375 -3.0625 5.375 C-3.3925 7.355 -3.7225 9.335 -4.0625 11.375 C-5.7125 11.045 -7.3625 10.715 -9.0625 10.375 C-9.3125 7.0625 -9.3125 7.0625 -9.0625 3.375 C-6.19915178 0.49848696 -3.99299509 -0.0361357 0 0 Z " fill="#B92E2D" transform="translate(106.0625,145.625)"/>
<path d="M0 0 C0.33 0 0.66 0 1 0 C1.19532961 1.7699868 1.38098882 3.54104279 1.5625 5.3125 C1.66691406 6.29863281 1.77132812 7.28476563 1.87890625 8.30078125 C2 11 2 11 1 14 C1.66 14 2.32 14 3 14 C3.66 14.66 4.32 15.32 5 16 C5.33 15.34 5.66 14.68 6 14 C7.875 13.25 7.875 13.25 10 13 C10.99 13.66 11.98 14.32 13 15 C11.35 17.64 9.7 20.28 8 23 C3.76570244 21.68938409 -0.07407404 20.05643741 -4 18 C-3.31195504 11.80759538 -1.71951285 5.98044406 0 0 Z " fill="#1391DC" transform="translate(82,204)"/>
<path d="M0 0 C0.33 1.32 0.66 2.64 1 4 C0.01 4.33 -0.98 4.66 -2 5 C-2.70491267 7.32206525 -3.37212429 9.65593068 -4 12 C-4.99 12.495 -4.99 12.495 -6 13 C-6.65213292 15.02463255 -6.65213292 15.02463255 -7 17 C-6.34 17 -5.68 17 -5 17 C-5 17.66 -5 18.32 -5 19 C-5.99 19 -6.98 19 -8 19 C-6.67661368 19.68620031 -5.34050052 20.34786461 -4 21 C-3.195625 21.4125 -2.39125 21.825 -1.5625 22.25 C1.66876409 23.19573583 3.06610398 22.50886081 6 21 C3.66666667 23.33333333 1.33333333 25.66666667 -1 28 C-4.39770885 27.6700572 -6.2681087 26.1807479 -8.75 23.9375 C-9.36359375 23.38964844 -9.9771875 22.84179688 -10.609375 22.27734375 C-11.06828125 21.85582031 -11.5271875 21.43429688 -12 21 C-11.37330264 17.81974475 -10.27499852 15.58965293 -8.49609375 12.890625 C-8.00302734 12.13652344 -7.50996094 11.38242188 -7.00195312 10.60546875 C-6.22754883 9.43951172 -6.22754883 9.43951172 -5.4375 8.25 C-4.91736328 7.45722656 -4.39722656 6.66445312 -3.86132812 5.84765625 C-2.57920942 3.8950718 -1.29198226 1.94606613 0 0 Z " fill="#1390DA" transform="translate(62,182)"/>
<path d="M0 0 C-0.495 0.45375 -0.99 0.9075 -1.5 1.375 C-3.22609337 2.87635519 -3.22609337 2.87635519 -3 5 C-3.66 5 -4.32 5 -5 5 C-5 4.34 -5 3.68 -5 3 C-8.96 3 -12.92 3 -17 3 C-17 11.58 -17 20.16 -17 29 C-14.69 29 -12.38 29 -10 29 C-10 27.35 -10 25.7 -10 24 C-9.67 24 -9.34 24 -9 24 C-9 26.31 -9 28.62 -9 31 C-11.64 31 -14.28 31 -17 31 C-17.33 31.66 -17.66 32.32 -18 33 C-19.09282967 29.72151099 -19.1293042 27.28559684 -19.1328125 23.8359375 C-19.13410156 22.63195312 -19.13539062 21.42796875 -19.13671875 20.1875 C-19.13285156 18.929375 -19.12898438 17.67125 -19.125 16.375 C-19.12886719 15.10914063 -19.13273437 13.84328125 -19.13671875 12.5390625 C-19.13542969 11.33765625 -19.13414063 10.13625 -19.1328125 8.8984375 C-19.13168457 7.79161621 -19.13055664 6.68479492 -19.12939453 5.54443359 C-19 3 -19 3 -18 2 C-15.35592188 1.40852295 -12.72436519 0.87194285 -10.0625 0.375 C-9.32064453 0.22804687 -8.57878906 0.08109375 -7.81445312 -0.0703125 C-2.24221322 -1.12110661 -2.24221322 -1.12110661 0 0 Z " fill="#991820" transform="translate(144,162)"/>
<path d="M0 0 C7.26 0 14.52 0 22 0 C22 2.97 22 5.94 22 9 C19.03 9 16.06 9 13 9 C13 8.34 13 7.68 13 7 C15.31 7 17.62 7 20 7 C20 5.02 20 3.04 20 1 C13.73 1 7.46 1 1 1 C1 14.53 1 28.06 1 42 C4.96 42 8.92 42 13 42 C13 42.33 13 42.66 13 43 C8.71 43 4.42 43 0 43 C0 28.81 0 14.62 0 0 Z " fill="#3D8CBB" transform="translate(109,96)"/>
<path d="M0 0 C0.66 1.65 1.32 3.3 2 5 C-0.475 4.01 -0.475 4.01 -3 3 C-4.47047336 6.91063224 -4.47047336 6.91063224 -5 11 C-5.66 11 -6.32 11 -7 11 C-6.34 12.65 -5.68 14.3 -5 16 C-5.33 16.33 -5.66 16.66 -6 17 C-5.90997602 19.02408755 -5.75358962 21.04544287 -5.5625 23.0625 C-5.46066406 24.16722656 -5.35882813 25.27195312 -5.25390625 26.41015625 C-5.17011719 27.26480469 -5.08632812 28.11945312 -5 29 C-7.43728039 25.34407942 -8.44791843 21.80638056 -9.6875 17.625 C-9.92533203 16.86960937 -10.16316406 16.11421875 -10.40820312 15.3359375 C-12.65827107 7.78732248 -12.65827107 7.78732248 -11 4 C-9.00390625 2.63671875 -9.00390625 2.63671875 -6.5625 1.6875 C-5.75941406 1.36136719 -4.95632812 1.03523437 -4.12890625 0.69921875 C-2 0 -2 0 0 0 Z " fill="#1291DC" transform="translate(90,7)"/>
<path d="M0 0 C6.93998648 2.16163513 13.43117569 4.8936214 20 8 C16.03891556 9.32036148 12.63772914 9.72787962 8.75 8 C8.1725 7.67 7.595 7.34 7 7 C6.34 7 5.68 7 5 7 C4.67 6.34 4.34 5.68 4 5 C2.02 5.33 0.04 5.66 -2 6 C-1.5205537 10.21912747 -0.83374881 12.79663178 2 16 C1.67 16.66 1.34 17.32 1 18 C-1.64 15.69 -4.28 13.38 -7 11 C-2.25 2.25 -2.25 2.25 0 0 Z " fill="#178ED3" transform="translate(34,47)"/>
<path d="M0 0 C2.98479194 4.47718792 4 8.63824093 4 14 C1.36 14.99 -1.28 15.98 -4 17 C-5.98 14.03 -7.96 11.06 -10 8 C-9.01 8 -8.02 8 -7 8 C-7 8.66 -7 9.32 -7 10 C-6.34 10 -5.68 10 -5 10 C-4.34 8.35 -3.68 6.7 -3 5 C-2.01 5 -1.02 5 0 5 C0 3.35 0 1.7 0 0 Z " fill="#B60A10" transform="translate(153,173)"/>
<path d="M0 0 C1 2 1 2 0.07421875 4.8359375 C-0.38339844 6.00382812 -0.84101562 7.17171875 -1.3125 8.375 C-7.69600725 25.46575917 -6.31315637 41.42843852 -3 59 C-6.1357595 56.43437859 -6.94449321 53.85924975 -8 50 C-8.22705078 46.56494141 -8.22705078 46.56494141 -8.1953125 42.8515625 C-8.1924826 42.19417084 -8.18965271 41.53677917 -8.18673706 40.85946655 C-8.17563447 38.78111767 -8.15054986 36.70321634 -8.125 34.625 C-8.11495731 33.20703752 -8.10583373 31.78906821 -8.09765625 30.37109375 C-8.07572805 26.91391963 -8.04126818 23.45700358 -8 20 C-7.34 20 -6.68 20 -6 20 C-6.04125 19.175 -6.0825 18.35 -6.125 17.5 C-5.97786007 13.38008185 -5.09476605 9.96852693 -4 6 C-3.34 6 -2.68 6 -2 6 C-2 4.35 -2 2.7 -2 1 C-1.34 0.67 -0.68 0.34 0 0 Z " fill="#208DCD" transform="translate(57,82)"/>
<path d="M0 0 C0.66 0 1.32 0 2 0 C2.185625 0.94875 2.37125 1.8975 2.5625 2.875 C3.036875 3.90625 3.51125 4.9375 4 6 C7.38824997 7.18241655 7.38824997 7.18241655 11 8 C13.4375 10.125 13.4375 10.125 15 12 C13 14 13 14 9.875 14.125 C8.92625 14.08375 7.9775 14.0425 7 14 C7 13.34 7 12.68 7 12 C5.35 11.67 3.7 11.34 2 11 C2 10.01 2 9.02 2 8 C1.01 7.67 0.02 7.34 -1 7 C-1.33 7.33 -1.66 7.66 -2 8 C-2.33 8 -2.66 8 -3 8 C-3 6.35 -3 4.7 -3 3 C-2.34 3 -1.68 3 -1 3 C-0.67 2.01 -0.34 1.02 0 0 Z " fill="#BA1417" transform="translate(110,75)"/>
<path d="M0 0 C5.94074887 1.00332648 10.20186518 2.30912706 15 6 C14.49396008 8.16874252 14.00016187 9.99967627 13 12 C11.02 12 9.04 12 7 12 C6.67 11.01 6.34 10.02 6 9 C3.98491642 8.26676204 3.98491642 8.26676204 2 8 C2.33 6.35 2.66 4.7 3 3 C2.01 2.67 1.02 2.34 0 2 C0 1.34 0 0.68 0 0 Z M9 6 C8.67 6.66 8.34 7.32 8 8 C8.66 8 9.32 8 10 8 C9.67 7.34 9.34 6.68 9 6 Z " fill="#B33436" transform="translate(114,74)"/>
<path d="M0 0 C4 4.5 4 4.5 4 9 C2.21722256 11.01623639 0.16873843 12.37344618 -2 14 C-2.33 11.03 -2.66 8.06 -3 5 C-4.65 5 -6.3 5 -8 5 C-8.33 6.32 -8.66 7.64 -9 9 C-9.33 8.34 -9.66 7.68 -10 7 C-11.65 7 -13.3 7 -15 7 C-11.99422513 4.99615009 -9.15022736 3.73880258 -5.8125 2.375 C-4.72582031 1.92898437 -3.63914063 1.48296875 -2.51953125 1.0234375 C-1.68808594 0.68570313 -0.85664063 0.34796875 0 0 Z " fill="#B8080F" transform="translate(185,70)"/>
<path d="M0 0 C0.33 0 0.66 0 1 0 C1.05845196 3.37492629 1.09374742 6.74972087 1.125 10.125 C1.15013672 11.55199219 1.15013672 11.55199219 1.17578125 13.0078125 C1.21091408 18.0669394 1.08719435 22.28448684 -1 27 C-2 28 -2 28 -4.6875 28.3125 C-8.95934665 27.9094956 -10.85793207 26.92285388 -14 24 C-14.80823301 21.231934 -14.90266164 18.92015074 -15 16 C-12.51818379 18.30454362 -10.81180541 20.31568125 -9.0625 23.25 C-8.381875 24.1575 -7.70125 25.065 -7 26 C-5.35 26 -3.7 26 -2 26 C-1.34 17.42 -0.68 8.84 0 0 Z " fill="#208ED1" transform="translate(112,3)"/>
<path d="M0 0 C2.97 0.99 5.94 1.98 9 3 C9.12375 3.969375 9.2475 4.93875 9.375 5.9375 C9.58125 6.948125 9.7875 7.95875 10 9 C10.66 9.33 11.32 9.66 12 10 C12 10.99 12 11.98 12 13 C12.99 13.33 13.98 13.66 15 14 C18.38164597 20.6380458 18.33051117 26.65530728 18 34 C17.67 34 17.34 34 17 34 C16.85304687 33.09121094 16.85304687 33.09121094 16.703125 32.1640625 C14.76110718 21.28206607 11.15067933 13.42817888 4 5 C3.195625 3.989375 2.39125 2.97875 1.5625 1.9375 C1.046875 1.298125 0.53125 0.65875 0 0 Z " fill="#A80F15" transform="translate(155,79)"/>
<path d="M0 0 C0 0.66 0 1.32 0 2 C-3.67410785 3.17571451 -7.16929183 3.07366746 -11 3 C-11 3.66 -11 4.32 -11 5 C-10.34 5.33 -9.68 5.66 -9 6 C-10.98 6.66 -12.96 7.32 -15 8 C-13.69844994 12.07964281 -13.69844994 12.07964281 -12 16 C-13.65 16 -15.3 16 -17 16 C-17 11.38 -17 6.76 -17 2 C-4.8125 -0.14285714 -4.8125 -0.14285714 0 0 Z " fill="#1092DF" transform="translate(28,109)"/>
<path d="M0 0 C1.37562854 1.28965176 2.70766393 2.62689293 4 4 C4 4.66 4 5.32 4 6 C5.98 6.66 7.96 7.32 10 8 C10 8.99 10 9.98 10 11 C7.36 11 4.72 11 2 11 C1.67 11.99 1.34 12.98 1 14 C-0.24546405 11.50907189 0.2232422 10.58919267 1 8 C-0.65 8 -2.3 8 -4 8 C-3.6875 5.125 -3.6875 5.125 -3 2 C-2.01 1.34 -1.02 0.68 0 0 Z M4 9 C4 9.33 4 9.66 4 10 C5.65 10 7.3 10 9 10 C9 9.67 9 9.34 9 9 C7.35 9 5.7 9 4 9 Z " fill="#C51C1D" transform="translate(106,150)"/>
<path d="M0 0 C9.24 0 18.48 0 28 0 C28 2.97 28 5.94 28 9 C25.69 9 23.38 9 21 9 C21 8.67 21 8.34 21 8 C22.98 8 24.96 8 27 8 C27 5.69 27 3.38 27 1 C18.75 1 10.5 1 2 1 C2 2.98 2 4.96 2 7 C3.65 7 5.3 7 7 7 C7 7.66 7 8.32 7 9 C4.69 9 2.38 9 0 9 C0 6.03 0 3.06 0 0 Z " fill="#3390CA" transform="translate(133,96)"/>
<path d="M0 0 C0.66 0.33 1.32 0.66 2 1 C1.67 1.99 1.34 2.98 1 4 C1.99 4.33 2.98 4.66 4 5 C7.8490566 6.69811321 7.8490566 6.69811321 9 9 C5.61981469 10.04005702 2.5219721 10.08004482 -1 10 C-1.061875 11.093125 -1.12375 12.18625 -1.1875 13.3125 C-2 17 -2 17 -4.5625 18.9375 C-5.366875 19.288125 -6.17125 19.63875 -7 20 C-6.29937517 15.43263559 -4.68729793 11.4300495 -2.9375 7.1875 C-2.51500977 6.14819336 -2.51500977 6.14819336 -2.08398438 5.08789062 C-1.39325027 3.39032376 -0.69716272 1.69493688 0 0 Z " fill="#A91F1E" transform="translate(96,152)"/>
<path d="M0 0 C2.97 0.495 2.97 0.495 6 1 C6.19412181 2.47831221 6.38012131 3.95769316 6.5625 5.4375 C6.66691406 6.26121094 6.77132812 7.08492188 6.87890625 7.93359375 C6.91886719 8.61550781 6.95882812 9.29742187 7 10 C6 11 6 11 3.5625 11.1875 C1 11 1 11 -1 9 C-0.625 6.5625 -0.625 6.5625 0 4 C0 3.01 0 2.02 0 1 C0 0.67 0 0.34 0 0 Z " fill="#0198F3" transform="translate(79,99)"/>
<path d="M0 0 C3 1 3 1 4 3 C6.34907875 3.68931344 6.34907875 3.68931344 9.0625 4.125 C9.98160156 4.29257813 10.90070312 4.46015625 11.84765625 4.6328125 C12.91306641 4.81457031 12.91306641 4.81457031 14 5 C14.33 3.35 14.66 1.7 15 0 C18.02485781 0.5881668 21.01386614 1.24070528 24 2 C21.42441474 3.2278953 18.84179456 4.43223642 16.25 5.625 C15.52039062 5.975625 14.79078125 6.32625 14.0390625 6.6875 C8.62559472 9.14816717 8.62559472 9.14816717 5.625 8.4375 C2.88507516 6.01372034 1.67733918 3.23486842 0 0 Z " fill="#1F8FD1" transform="translate(28,178)"/>
<path d="M0 0 C5.75 1.875 5.75 1.875 8 3 C7.40380045 7.86896303 6.43023178 12.32790951 5 17 C4.67 17 4.34 17 4 17 C4.0825 15.7625 4.165 14.525 4.25 13.25 C4.2737948 9.89493302 4.19641677 9.24552096 2 6.5 C1.34 6.005 0.68 5.51 0 5 C0.33 4.34 0.66 3.68 1 3 C0.34 3 -0.32 3 -1 3 C-0.67 2.01 -0.34 1.02 0 0 Z " fill="#B40C11" transform="translate(149,44)"/>
<path d="M0 0 C0.66 0.33 1.32 0.66 2 1 C0.02 2.32 -1.96 3.64 -4 5 C-3.67 8.3 -3.34 11.6 -3 15 C-1.68 14.67 -0.36 14.34 1 14 C1 13.34 1 12.68 1 12 C5.29 12.33 9.58 12.66 14 13 C14 13.33 14 13.66 14 14 C11.75256955 14.53181175 9.50192898 15.05007126 7.25 15.5625 C5.37054687 15.99755859 5.37054687 15.99755859 3.453125 16.44140625 C-1.51111111 17.24444444 -1.51111111 17.24444444 -4 16 C-5.046875 14.29296875 -5.046875 14.29296875 -5.75 12.1875 C-5.99234375 11.50042969 -6.2346875 10.81335938 -6.484375 10.10546875 C-7 8 -7 8 -7 4 C-1.7265625 0.77734375 -1.7265625 0.77734375 0 0 Z " fill="#2B8DC6" transform="translate(22,142)"/>
<path d="M0 0 C1.89600369 0.31146472 3.79179587 0.62421717 5.6875 0.9375 C6.74324219 1.11152344 7.79898437 1.28554687 8.88671875 1.46484375 C11.60249604 1.93167121 14.30124235 2.44422616 17 3 C17 3.33 17 3.66 17 4 C14.36 4.33 11.72 4.66 9 5 C9 4.34 9 3.68 9 3 C6.03 2.67 3.06 2.34 0 2 C-0.144375 2.721875 -0.28875 3.44375 -0.4375 4.1875 C-0.95833333 6.79166667 -1.47916667 9.39583333 -2 12 C-0.35 12 1.3 12 3 12 C3 13.32 3 14.64 3 16 C-1.75 14.125 -1.75 14.125 -4 13 C-3.50269348 8.02693484 -2.44697666 4.36200187 0 0 Z " fill="#218BCA" transform="translate(19,75)"/>
<path d="M0 0 C1.17046875 0.03609375 2.3409375 0.0721875 3.546875 0.109375 C4.43890625 0.15578125 5.3309375 0.2021875 6.25 0.25 C6.25 0.91 6.25 1.57 6.25 2.25 C7.24 2.58 8.23 2.91 9.25 3.25 C6.48001178 3.6123444 3.70937619 3.96517517 0.9375 4.3125 C-0.24102539 4.4681543 -0.24102539 4.4681543 -1.44335938 4.62695312 C-2.5793457 4.76713867 -2.5793457 4.76713867 -3.73828125 4.91015625 C-4.43477783 4.99918213 -5.13127441 5.08820801 -5.84887695 5.17993164 C-7.75 5.25 -7.75 5.25 -10.75 4.25 C-7.43152371 0.07726249 -5.22729025 -0.20909161 0 0 Z " fill="#B20F0F" transform="translate(97.75,169.75)"/>
<path d="M0 0 C2.64 0.33 5.28 0.66 8 1 C8 3.31 8 5.62 8 8 C7.34 8 6.68 8 6 8 C6 6.35 6 4.7 6 3 C4.02 3 2.04 3 0 3 C-0.33 11.58 -0.66 20.16 -1 29 C-1.33 29 -1.66 29 -2 29 C-2.05794812 24.72922344 -2.09357874 20.45854764 -2.125 16.1875 C-2.14175781 14.97255859 -2.15851563 13.75761719 -2.17578125 12.50585938 C-2.18222656 11.34248047 -2.18867187 10.17910156 -2.1953125 8.98046875 C-2.20578613 7.90692139 -2.21625977 6.83337402 -2.22705078 5.72729492 C-2 3 -2 3 0 0 Z " fill="#9A1C20" transform="translate(127,40)"/>
<path d="M0 0 C1.99954746 -0.04254356 4.00041636 -0.04080783 6 0 C7 1 7 1 7.09765625 3.06640625 C7.08605469 3.89011719 7.07445312 4.71382813 7.0625 5.5625 C7.05347656 6.38878906 7.04445312 7.21507813 7.03515625 8.06640625 C7.02355469 8.70449219 7.01195312 9.34257813 7 10 C5.2508503 10.33776684 3.50063855 10.67003671 1.75 11 C0.28820312 11.2784375 0.28820312 11.2784375 -1.203125 11.5625 C-4 12 -4 12 -8 12 C-8 13.65 -8 15.3 -8 17 C-8.33 17 -8.66 17 -9 17 C-9.04254356 15.00045254 -9.04080783 12.99958364 -9 11 C-7.45615868 9.45615868 -5.82645761 9.69604194 -3.6875 9.5 C-0.69410854 9.22292575 2.09908418 8.79659016 5 8 C5 6.02 5 4.04 5 2 C3.35 2 1.7 2 0 2 C0 1.34 0 0.68 0 0 Z " fill="#A61418" transform="translate(194,111)"/>
<path d="M0 0 C4.33333333 4.33333333 8.66666667 8.66666667 13 13 C12.01 13.495 12.01 13.495 11 14 C7.9533855 12.98446183 5.68856164 11.79237442 3 10 C2.34 10 1.68 10 1 10 C1.020625 8.906875 1.04125 7.81375 1.0625 6.6875 C1.18544452 3.05615809 1.18544452 3.05615809 0 0 Z " fill="#1490DB" transform="translate(63,160)"/>
<path d="M0 0 C2.38419873 0.95367949 3.73467287 1.57989872 5.125 3.78125 C6.59519922 7.50925516 6.11690131 11.02535549 6 15 C1.71 15 -2.58 15 -7 15 C-7 12.36 -7 9.72 -7 7 C-5 10 -5 10 -5 14 C-1.7 14 1.6 14 5 14 C4.34 12.68 3.68 11.36 3 10 C2.7525 8.1746875 2.7525 8.1746875 2.5 6.3125 C2.335 5.219375 2.17 4.12625 2 3 C1.34 2.67 0.68 2.34 0 2 C0 1.34 0 0.68 0 0 Z " fill="#248FCB" transform="translate(82,97)"/>
<path d="M0 0 C0.66 0 1.32 0 2 0 C2.33 0.66 2.66 1.32 3 2 C3.99 2 4.98 2 6 2 C6.33 1.34 6.66 0.68 7 0 C8.65 0 10.3 0 12 0 C12 0.99 12 1.98 12 3 C13.32 3.33 14.64 3.66 16 4 C11.50316286 5.75486327 7.82574442 6.36420713 3 6 C2.01 5.34 1.02 4.68 0 4 C0 2.68 0 1.36 0 0 Z " fill="#923031" transform="translate(105,86)"/>
<path d="M0 0 C2.7710688 2.34591852 3.52059284 4.14776201 4.1875 7.6875 C4.34605469 8.49574219 4.50460938 9.30398437 4.66796875 10.13671875 C4.77753906 10.75160156 4.88710937 11.36648437 5 12 C4.01 12.495 4.01 12.495 3 13 C2.34 10.36 1.68 7.72 1 5 C-0.88695626 9.28853694 -2.58192622 13.52761347 -4 18 C-4.33 18 -4.66 18 -5 18 C-4.56699236 11.18012971 -3.09212176 6.08356979 0 0 Z " fill="#903537" transform="translate(110,46)"/>
<path d="M0 0 C6.93 0 13.86 0 21 0 C21 2.97 21 5.94 21 9 C18.03 9 15.06 9 12 9 C12 8.34 12 7.68 12 7 C14.31 7 16.62 7 19 7 C19 5.02 19 3.04 19 1 C12.73 1 6.46 1 0 1 C0 0.67 0 0.34 0 0 Z " fill="#2E90CC" transform="translate(110,96)"/>
<path d="M0 0 C3.56311466 1.78155733 5.35645475 3.16763009 8 6 C7.34 6.66 6.68 7.32 6 8 C6 7.01 6 6.02 6 5 C2.41672247 3.99782936 2.41672247 3.99782936 -1 5 C-1.309375 5.639375 -1.61875 6.27875 -1.9375 6.9375 C-3 9 -3 9 -6 11 C-6 10.01 -6 9.02 -6 8 C-6.66 7.67 -7.32 7.34 -8 7 C-5.36 4.69 -2.72 2.38 0 0 Z " fill="#AD0D11" transform="translate(168,55)"/>
<path d="M0 0 C1.32 0.33 2.64 0.66 4 1 C4.359375 3.75390625 4.359375 3.75390625 4 7 C1.515625 9.15234375 1.515625 9.15234375 -1.75 10.9375 C-3.35101563 11.84822266 -3.35101563 11.84822266 -4.984375 12.77734375 C-8 14 -8 14 -12 13 C-7.71 10.36 -3.42 7.72 1 5 C0.67 3.35 0.34 1.7 0 0 Z " fill="#178FD5" transform="translate(36,128)"/>
<path d="M0 0 C1.98 0 3.96 0 6 0 C4.68 0.33 3.36 0.66 2 1 C2 1.66 2 2.32 2 3 C-0.56126064 4.294174 -3.12393358 5.58540784 -5.6875 6.875 C-6.40873047 7.23980469 -7.12996094 7.60460938 -7.87304688 7.98046875 C-11.53125364 9.8179242 -15.1611695 11.56138502 -19 13 C-17.37660195 11.29115995 -15.70680947 9.62553283 -14 8 C-13.34 8 -12.68 8 -12 8 C-12 7.34 -12 6.68 -12 6 C-11.195625 5.71125 -10.39125 5.4225 -9.5625 5.125 C-6.8673532 4.26737432 -6.8673532 4.26737432 -6 2 C-4.02 2 -2.04 2 0 2 C0 1.34 0 0.68 0 0 Z " fill="#1D8ED2" transform="translate(99,43)"/>
<path d="M0 0 C0.66 0 1.32 0 2 0 C2.89749822 3.0682638 3.11711768 5.79269976 3.09765625 8.984375 C3.09443359 9.91894531 3.09121094 10.85351562 3.08789062 11.81640625 C3.07951172 12.78449219 3.07113281 13.75257813 3.0625 14.75 C3.05798828 15.73355469 3.05347656 16.71710938 3.04882812 17.73046875 C3.03706483 20.15370791 3.02062684 22.57682273 3 25 C4.32 25.33 5.64 25.66 7 26 C5.35 26 3.7 26 2 26 C1.34 17.42 0.68 8.84 0 0 Z " fill="#218DD0" transform="translate(110,205)"/>
<path d="M0 0 C0.33 0.99 0.66 1.98 1 3 C-0.32 4.32 -1.64 5.64 -3 7 C-3.66 6.34 -4.32 5.68 -5 5 C-6.9931567 4.97624074 -6.9931567 4.97624074 -9.125 5.375 C-10.40375 5.58125 -11.6825 5.7875 -13 6 C-13 6.66 -13 7.32 -13 8 C-13.99 8.33 -14.98 8.66 -16 9 C-15.9375 7.1875 -15.9375 7.1875 -15 5 C-10.35226364 2.44830161 -7.31839088 1.87631649 -2 2 C-1.34 1.34 -0.68 0.68 0 0 Z " fill="#9B3D42" transform="translate(109,73)"/>
<path d="M0 0 C4.83672433 2.05987554 8.37033878 5.73314025 12.24609375 9.19921875 C14.85190774 11.3048332 14.85190774 11.3048332 17.84765625 10.76953125 C18.55792969 10.51558594 19.26820312 10.26164062 20 10 C20 10.99 20 11.98 20 13 C15.32883604 13.32589516 12.75467588 12.84137634 9 10 C8.525625 9.319375 8.05125 8.63875 7.5625 7.9375 C5.43082424 5.29422206 3.21644616 4.85771898 0 4 C0 2.68 0 1.36 0 0 Z " fill="#1B8DCD" transform="translate(64,28)"/>
<path d="M0 0 C-0.33 1.65 -0.66 3.3 -1 5 C-2.051875 4.7525 -2.051875 4.7525 -3.125 4.5 C-6.13888194 3.97584662 -8.94713625 3.92900317 -12 4 C-11.875 2.125 -11.875 2.125 -11 0 C-6.53946511 -2.03633115 -4.39613248 -2.19806624 0 0 Z " fill="#A12627" transform="translate(107,79)"/>
<path d="M0 0 C0.99 2.64 1.98 5.28 3 8 C-2.75 12 -2.75 12 -5 12 C-5 11.01 -5 10.02 -5 9 C-3.68 9 -2.36 9 -1 9 C-1.185625 8.21625 -1.37125 7.4325 -1.5625 6.625 C-2 4 -2 4 -1 2 C-3.31 2 -5.62 2 -8 2 C-4.91190305 0.23537317 -3.76687864 0 0 0 Z " fill="#A91018" transform="translate(196,89)"/>
<path d="M0 0 C1.89453125 0.85546875 1.89453125 0.85546875 3.89453125 3.85546875 C2.53328125 3.79359375 2.53328125 3.79359375 1.14453125 3.73046875 C-2.86866525 3.81473352 -2.86866525 3.81473352 -6.10546875 5.85546875 C-6.9241706 9.41753536 -6.9241706 9.41753536 -7.10546875 12.85546875 C-8.66796875 11.60546875 -8.66796875 11.60546875 -10.10546875 9.85546875 C-9.73387675 6.37536676 -8.39452937 4.78799858 -5.79296875 2.54296875 C-5.19871094 2.01058594 -4.60445312 1.47820313 -3.9921875 0.9296875 C-2.10546875 -0.14453125 -2.10546875 -0.14453125 0 0 Z " fill="#228CCE" transform="translate(60.10546875,24.14453125)"/>
<path d="M0 0 C1.98 0 3.96 0 6 0 C6 10.23 6 20.46 6 31 C5.67 31 5.34 31 5 31 C4.67 21.76 4.34 12.52 4 3 C2.68 2.67 1.36 2.34 0 2 C0 1.34 0 0.68 0 0 Z " fill="#0A92E2" transform="translate(119,193)"/>
<path d="M0 0 C0.67804688 0.44730469 1.35609375 0.89460937 2.0546875 1.35546875 C7.53373424 4.91457252 13.00465773 8.14994272 18.90625 10.95703125 C21 12 21 12 24 14 C14.46839658 13.20569971 6.92572774 8.50890153 0 2 C0 1.34 0 0.68 0 0 Z " fill="#2088C9" transform="translate(76,174)"/>
<path d="M0 0 C0.33 0 0.66 0 1 0 C1 3.96 1 7.92 1 12 C0.34 12 -0.32 12 -1 12 C-0.773125 12.7425 -0.54625 13.485 -0.3125 14.25 C0 17 0 17 -1.3125 19.3125 C-1.869375 19.869375 -2.42625 20.42625 -3 21 C-3.66 21 -4.32 21 -5 21 C-5 21.99 -5 22.98 -5 24 C-5.66 24 -6.32 24 -7 24 C-6.71253906 23.29617187 -6.42507812 22.59234375 -6.12890625 21.8671875 C-3.32642827 14.74947527 -0.69570483 7.6527531 0 0 Z " fill="#A41013" transform="translate(172,120)"/>
<path d="M0 0 C0.66 0 1.32 0 2 0 C5.125 6.625 5.125 6.625 4 10 C3.195625 9.67 2.39125 9.34 1.5625 9 C-0.69681125 7.93940959 -0.69681125 7.93940959 -2 8 C-2.33 8 -2.66 8 -3 8 C-3 6.35 -3 4.7 -3 3 C-2.34 3 -1.68 3 -1 3 C-0.67 2.01 -0.34 1.02 0 0 Z " fill="#BE0C0E" transform="translate(110,75)"/>
<path d="M0 0 C2.64 0.33 5.28 0.66 8 1 C8 2.32 8 3.64 8 5 C11.4019487 7.09350689 14.05272412 7.17942163 18 7 C17.01 8.32 16.02 9.64 15 11 C11.30010206 9.32044107 8.73307356 7.08369792 5.78125 4.33984375 C3.8478866 2.88558137 2.36211843 2.41958683 0 2 C0 1.34 0 0.68 0 0 Z " fill="#A20F16" transform="translate(155,168)"/>
<path d="M0 0 C2.87770097 2.45596893 3.96687126 4.90889595 5.25 8.4375 C5.60578125 9.38496094 5.9615625 10.33242187 6.328125 11.30859375 C7.01466386 14.05874071 6.96622898 15.38003295 6 18 C4 15 4 15 3.6875 12.4375 C3.460625 11.633125 3.23375 10.82875 3 10 C0.52363988 8.62533375 0.52363988 8.62533375 -2 8 C-2 7.34 -2 6.68 -2 6 C-1.01 6 -0.02 6 1 6 C0.67 4.02 0.34 2.04 0 0 Z " fill="#A71F21" transform="translate(112,148)"/>
<path d="M0 0 C0.66 0 1.32 0 2 0 C2.28875 0.598125 2.5775 1.19625 2.875 1.8125 C4.04742026 4.19327792 4.04742026 4.19327792 6 7 C5.67 7.33 5.34 7.66 5 8 C5.09002398 10.02408755 5.24641038 12.04544287 5.4375 14.0625 C5.53933594 15.16722656 5.64117187 16.27195312 5.74609375 17.41015625 C5.82988281 18.26480469 5.91367188 19.11945312 6 20 C3.89736898 16.84605348 2.98223382 14.17536296 1.875 10.5625 C1.52179688 9.42941406 1.16859375 8.29632813 0.8046875 7.12890625 C0 4 0 4 0 0 Z " fill="#1E8DD0" transform="translate(79,16)"/>
<path d="M0 0 C0 0.33 0 0.66 0 1 C-0.845625 1.12375 -1.69125 1.2475 -2.5625 1.375 C-7.76159688 3.83275489 -10.01845448 8.2189418 -13 13 C-13.33 12.34 -13.66 11.68 -14 11 C-13.2575 10.1028125 -13.2575 10.1028125 -12.5 9.1875 C-10.71723582 7.02970006 -10.71723582 7.02970006 -11 4 C-10.01 4 -9.02 4 -8 4 C-8.33 2.68 -8.66 1.36 -9 0 C-5.93109813 -1.53445094 -3.29905734 -0.54984289 0 0 Z " fill="#1D8FD5" transform="translate(110,203)"/>
<path d="M0 0 C1.32 0 2.64 0 4 0 C4.36552803 1.41377782 4.71695495 2.83120576 5.0625 4.25 C5.25972656 5.03890625 5.45695312 5.8278125 5.66015625 6.640625 C6 9 6 9 5 13 C1.7 12.34 -1.6 11.68 -5 11 C-5 10.67 -5 10.34 -5 10 C-2.36 9.67 0.28 9.34 3 9 C3.40749675 4.74268432 3.40749675 4.74268432 1.5 1.125 C1.005 0.75375 0.51 0.3825 0 0 Z " fill="#1A8ED0" transform="translate(34,98)"/>
<path d="M0 0 C-2 2 -2 2 -4.3203125 2.125 C-5.24585937 2.08375 -6.17140625 2.0425 -7.125 2 C-12.1860059 1.89401035 -16.14431915 2.66050183 -21 4 C-24 4.125 -24 4.125 -26 4 C-25.401875 3.71125 -24.80375 3.4225 -24.1875 3.125 C-21.80672208 1.95257974 -21.80672208 1.95257974 -19 0 C-16.11957072 -0.32829471 -13.32618788 -0.55565118 -10.4375 -0.6875 C-9.65697266 -0.73455078 -8.87644531 -0.78160156 -8.07226562 -0.83007812 C-2.27083333 -1.13541667 -2.27083333 -1.13541667 0 0 Z " fill="#3A8EC6" transform="translate(127,41)"/>
<path d="M0 0 C7.38461538 -0.36923077 7.38461538 -0.36923077 10.5 1.5 C10.995 1.995 11.49 2.49 12 3 C11.67 4.32 11.34 5.64 11 7 C9.02 7 7.04 7 5 7 C4.67 5.02 4.34 3.04 4 1 C2.68 0.67 1.36 0.34 0 0 Z M5 3 C9 4 9 4 9 4 Z " fill="#B32824" transform="translate(108,162)"/>
<path d="M0 0 C1.65 0 3.3 0 5 0 C5 0.66 5 1.32 5 2 C3.68 2 2.36 2 1 2 C1.28359887 3.4391134 1.57721399 4.87625518 1.875 6.3125 C2.03742187 7.11300781 2.19984375 7.91351563 2.3671875 8.73828125 C2.94478999 11.25301118 2.94478999 11.25301118 5 14 C3.35 14 1.7 14 0 14 C0 9.38 0 4.76 0 0 Z " fill="#228ED3" transform="translate(11,111)"/>
<path d="M0 0 C1.76227952 2.64341928 3.19871008 5.23077235 4.625 8.0625 C5.07101563 8.94035156 5.51703125 9.81820312 5.9765625 10.72265625 C7 13 7 13 7 15 C6.34 15 5.68 15 5 15 C4.67 14.34 4.34 13.68 4 13 C3.34 13 2.68 13 2 13 C0.54815522 8.46298506 -0.23509196 4.81938524 0 0 Z " fill="#198CCE" transform="translate(54,142)"/>
<path d="M0 0 C0.33 0 0.66 0 1 0 C1.05395478 1.62463842 1.09277195 3.24978541 1.125 4.875 C1.14820312 5.77992187 1.17140625 6.68484375 1.1953125 7.6171875 C1 10 1 10 -1 12 C-1.33 10.35 -1.66 8.7 -2 7 C-2.99 7.33 -3.98 7.66 -5 8 C-4.67 5.69 -4.34 3.38 -4 1 C-3.01 2.32 -2.02 3.64 -1 5 C-0.67 3.35 -0.34 1.7 0 0 Z " fill="#9C2626" transform="translate(114,58)"/>
<path d="M0 0 C0.91007812 0.00902344 1.82015625 0.01804688 2.7578125 0.02734375 C3.45648438 0.03894531 4.15515625 0.05054688 4.875 0.0625 C4.875 0.7225 4.875 1.3825 4.875 2.0625 C3.91787109 2.13597656 3.91787109 2.13597656 2.94140625 2.2109375 C2.11511719 2.28570312 1.28882812 2.36046875 0.4375 2.4375 C-0.38621094 2.50710937 -1.20992188 2.57671875 -2.05859375 2.6484375 C-2.74050781 2.78507813 -3.42242187 2.92171875 -4.125 3.0625 C-4.455 3.7225 -4.785 4.3825 -5.125 5.0625 C-6.445 5.0625 -7.765 5.0625 -9.125 5.0625 C-6.91386358 0.16641221 -5.24075958 -0.06718923 0 0 Z " fill="#982229" transform="translate(106.125,145.9375)"/>
<path d="M0 0 C0 3.73651504 -0.9755848 4.53973643 -3.3125 7.375 C-5.81042601 10.47465312 -8.07960727 13.49810737 -10 17 C-11 15 -11 15 -10.25 11.4375 C-9.8375 10.303125 -9.425 9.16875 -9 8 C-8.01 7.67 -7.02 7.34 -6 7 C-4.34362312 5.36955876 -4.34362312 5.36955876 -2.8125 3.4375 C-2.28269531 2.79683594 -1.75289062 2.15617187 -1.20703125 1.49609375 C-0.80871094 1.00238281 -0.41039063 0.50867188 0 0 Z " fill="#218CC9" transform="translate(69,65)"/>
<path d="M0 0 C-0.495 0.45375 -0.99 0.9075 -1.5 1.375 C-3.22609337 2.87635519 -3.22609337 2.87635519 -3 5 C-3.66 5 -4.32 5 -5 5 C-5 4.34 -5 3.68 -5 3 C-9.29 3 -13.58 3 -18 3 C-18 2.67 -18 2.34 -18 2 C-15.37638987 1.47109454 -12.75151775 0.95157912 -10.125 0.4375 C-9.37863281 0.28603516 -8.63226563 0.13457031 -7.86328125 -0.02148438 C-2.2265625 -1.11328125 -2.2265625 -1.11328125 0 0 Z " fill="#AB1013" transform="translate(144,162)"/>
<path d="M0 0 C2.20805524 -0.0544452 4.41650554 -0.09299283 6.625 -0.125 C7.85476562 -0.14820312 9.08453125 -0.17140625 10.3515625 -0.1953125 C13.94316041 -0.0030428 16.66661175 0.69741444 20 2 C20 2.33 20 2.66 20 3 C6.3667426 2.03644647 6.3667426 2.03644647 0 1 C0 0.67 0 0.34 0 0 Z " fill="#238FD3" transform="translate(16,125)"/>
<path d="M0 0 C2.33294775 -0.04241723 4.66702567 -0.04092937 7 0 C8 1 8 1 8.09765625 2.84765625 C8.04882812 5.92382812 8.04882812 5.92382812 8 9 C6.68 9 5.36 9 4 9 C4 8.34 4 7.68 4 7 C4.66 7 5.32 7 6 7 C6 5.35 6 3.7 6 2 C3.03 1.505 3.03 1.505 0 1 C0 0.67 0 0.34 0 0 Z " fill="#2691D3" transform="translate(122,112)"/>
<path d="M0 0 C0.33 1.32 0.66 2.64 1 4 C0.01 4.33 -0.98 4.66 -2 5 C-2.309375 6.134375 -2.61875 7.26875 -2.9375 8.4375 C-4 12 -4 12 -6.125 13.4375 C-6.74375 13.623125 -7.3625 13.80875 -8 14 C-6.6744419 10.37723685 -5.05653045 7.36494652 -2.875 4.1875 C-2.33617187 3.39730469 -1.79734375 2.60710937 -1.2421875 1.79296875 C-0.83226562 1.20128906 -0.42234375 0.60960937 0 0 Z " fill="#1D8ED0" transform="translate(62,182)"/>
<path d="M0 0 C2.66666667 0.66666667 5.33333333 1.33333333 8 2 C4.29873141 4.46751239 2.37776468 4.30721156 -2 4 C-4.4375 3 -4.4375 3 -6 2 C-3.50907189 0.75453595 -2.58919267 1.2232422 0 2 C0 1.34 0 0.68 0 0 Z " fill="#1C8FD0" transform="translate(70,136)"/>
<path d="M0 0 C0.928125 0.33 1.85625 0.66 2.8125 1 C5.92029291 2.14967004 5.92029291 2.14967004 9 2 C9.59732819 4.76264289 10 7.16032769 10 10 C8.33037631 8.52417192 6.6643694 7.04425109 5 5.5625 C4.071875 4.73878906 3.14375 3.91507812 2.1875 3.06640625 C1.465625 2.38449219 0.74375 1.70257813 0 1 C0 0.67 0 0.34 0 0 Z " fill="#178DD5" transform="translate(36,65)"/>
<path d="M0 0 C2.33524782 2.25740623 4.18705073 4.2805761 6 7 C5.625 9.1875 5.625 9.1875 5 11 C3.0625 10 3.0625 10 1 8 C0.33450549 5.30075428 0.18319237 2.79368363 0 0 Z " fill="#1590D6" transform="translate(97,19)"/>
<path d="M0 0 C1.051875 1.2684375 1.051875 1.2684375 2.125 2.5625 C1.795 3.5525 1.465 4.5425 1.125 5.5625 C-0.54426454 4.58776874 -2.21035642 3.60760211 -3.875 2.625 C-4.803125 2.07972656 -5.73125 1.53445312 -6.6875 0.97265625 C-7.409375 0.50730469 -8.13125 0.04195313 -8.875 -0.4375 C-8.875 -0.7675 -8.875 -1.0975 -8.875 -1.4375 C-4.60386331 -2.72877388 -3.51475976 -2.97990501 0 0 Z " fill="#158DD2" transform="translate(30.875,92.4375)"/>
<path d="M0 0 C1.4835001 0.42257276 2.96176424 0.86356322 4.4375 1.3125 C5.67306641 1.67794922 5.67306641 1.67794922 6.93359375 2.05078125 C7.61550781 2.36402344 8.29742187 2.67726563 9 3 C9.33 3.99 9.66 4.98 10 6 C8.68 6.33 7.36 6.66 6 7 C4.02 4.69 2.04 2.38 0 0 Z " fill="#B10A10" transform="translate(155,79)"/>
<path d="M0 0 C1.65 0.99 3.3 1.98 5 3 C4.67 4.32 4.34 5.64 4 7 C3.67 6.34 3.34 5.68 3 5 C0.6859378 4.26924352 -1.64828869 3.59861742 -4 3 C-4 2.34 -4 1.68 -4 1 C-2.68 1.33 -1.36 1.66 0 2 C0 1.34 0 0.68 0 0 Z " fill="#983133" transform="translate(124,77)"/>
<path d="M0 0 C0.61875 0.804375 1.2375 1.60875 1.875 2.4375 C3.74164041 5.03874519 3.74164041 5.03874519 6 6 C5.67 7.65 5.34 9.3 5 11 C4.01 10.67 3.02 10.34 2 10 C1.05078125 7.93359375 1.05078125 7.93359375 0.3125 5.4375 C0.06113281 4.61121094 -0.19023438 3.78492187 -0.44921875 2.93359375 C-0.63097656 2.29550781 -0.81273438 1.65742187 -1 1 C-0.67 0.67 -0.34 0.34 0 0 Z M3 7 C4 9 4 9 4 9 Z " fill="#B02825" transform="translate(111,71)"/>
<path d="M0 0 C0.66 0 1.32 0 2 0 C2.3125 3.3125 2.3125 3.3125 2 7 C-0.5 8.9375 -0.5 8.9375 -3 10 C-2.39009109 6.44219804 -1.4216319 3.3171411 0 0 Z " fill="#A4151B" transform="translate(92,162)"/>
<path d="M0 0 C1.32 0.66 2.64 1.32 4 2 C3.34 3.32 2.68 4.64 2 6 C-0.64 5.34 -3.28 4.68 -6 4 C-4.68 3.67 -3.36 3.34 -2 3 C-1.67 2.34 -1.34 1.68 -1 1 C-0.67 0.67 -0.34 0.34 0 0 Z " fill="#B31219" transform="translate(108,81)"/>
<path d="M0 0 C1.99954746 -0.04254356 4.00041636 -0.04080783 6 0 C6.33 0.33 6.66 0.66 7 1 C6.91036938 2.69141656 6.75422324 4.37959602 6.5625 6.0625 C6.46066406 6.98160156 6.35882813 7.90070313 6.25390625 8.84765625 C6.12822266 9.91306641 6.12822266 9.91306641 6 11 C5.34 11 4.68 11 4 11 C4.33 8.36 4.66 5.72 5 3 C2.525 2.01 2.525 2.01 0 1 C0 0.67 0 0.34 0 0 Z " fill="#1F90D4" transform="translate(79,193)"/>
<path d="M0 0 C3.02419525 0.58803797 6.01758453 1.22678118 9 2 C2.375 5 2.375 5 -1 5 C-0.67 3.35 -0.34 1.7 0 0 Z " fill="#148FD9" transform="translate(43,178)"/>
<path d="M0 0 C0.33 0.66 0.66 1.32 1 2 C3.64 1.67 6.28 1.34 9 1 C9 1.66 9 2.32 9 3 C8.34 3 7.68 3 7 3 C7 3.66 7 4.32 7 5 C6.01 5.33 5.02 5.66 4 6 C1.8125 4.75 1.8125 4.75 0 3 C0 2.01 0 1.02 0 0 Z " fill="#A81B1D" transform="translate(94,81)"/>
<path d="M0 0 C1.48206495 0.254496 2.96068615 0.52911762 4.4375 0.8125 C5.67306641 1.03873047 5.67306641 1.03873047 6.93359375 1.26953125 C7.95646484 1.63111328 7.95646484 1.63111328 9 2 C9.33 2.99 9.66 3.98 10 5 C8.02 5 6.04 5 4 5 C4 4.01 4 3.02 4 2 C3.01 2.33 2.02 2.66 1 3 C0.67 2.01 0.34 1.02 0 0 Z " fill="#A33D3E" transform="translate(114,74)"/>
<path d="M0 0 C4.29 0.33 8.58 0.66 13 1 C13 1.33 13 1.66 13 2 C8.9472484 2.98248524 5.16138263 3.08159574 1 3 C0.67 2.01 0.34 1.02 0 0 Z " fill="#178FD6" transform="translate(23,154)"/>
<path d="M0 0 C2.0625 0.4375 2.0625 0.4375 4 1 C3.67 2.65 3.34 4.3 3 6 C0.03 5.505 0.03 5.505 -3 5 C-1.125 1.125 -1.125 1.125 0 0 Z " fill="#B7322D" transform="translate(103,78)"/>
<path d="M0 0 C0.9075 0.165 1.815 0.33 2.75 0.5 C6.11087503 1.10137146 6.11087503 1.10137146 10 1 C10.33 1.99 10.66 2.98 11 4 C7.37 3.67 3.74 3.34 0 3 C0 2.01 0 1.02 0 0 Z " fill="#BF2A2D" transform="translate(94,162)"/>
<path d="M0 0 C-1.2065625 0.8971875 -1.2065625 0.8971875 -2.4375 1.8125 C-5.22327984 3.80947276 -5.22327984 3.80947276 -6 7 C-6.33 4.69 -6.66 2.38 -7 0 C-3.98968256 -0.93423645 -3.13349732 -1.04449911 0 0 Z " fill="#AE0D15" transform="translate(191,102)"/>
<path d="M0 0 C1.875 0.3125 1.875 0.3125 4 1 C4.66 1.99 5.32 2.98 6 4 C3 4 0 4 -3 4 C-2.01 2.68 -1.02 1.36 0 0 Z " fill="#168FD7" transform="translate(58,24)"/>
<path d="M0 0 C0 2.33333333 0 4.66666667 0 7 C-1.98 7.33 -3.96 7.66 -6 8 C-4.02 5.36 -2.04 2.72 0 0 Z " fill="#AB1015" transform="translate(164,144)"/>
<path d="M0 0 C0.66 0.66 1.32 1.32 2 2 C0.625 4 0.625 4 -1 6 C-1.66 6 -2.32 6 -3 6 C-3 6.99 -3 7.98 -3 9 C-3.66 9 -4.32 9 -5 9 C-3.7508258 5.54074837 -2.32472205 2.85306797 0 0 Z " fill="#AF0C0F" transform="translate(170,135)"/>
<path d="M0 0 C2.31 0 4.62 0 7 0 C6.01 1.485 6.01 1.485 5 3 C1.875 3.1875 1.875 3.1875 -1 3 C-0.67 2.01 -0.34 1.02 0 0 Z " fill="#B50D10" transform="translate(118,86)"/>
<path d="M0 0 C2.31 0 4.62 0 7 0 C7 1.65 7 3.3 7 5 C6.34 4.34 5.68 3.68 5 3 C2.42938689 2.35232207 2.42938689 2.35232207 0 2 C0 1.34 0 0.68 0 0 Z " fill="#B00D14" transform="translate(136,175)"/>
<path d="M0 0 C0.33 0 0.66 0 1 0 C1.06058594 0.61488281 1.12117188 1.22976562 1.18359375 1.86328125 C1.26738281 2.67152344 1.35117188 3.47976562 1.4375 4.3125 C1.51871094 5.11300781 1.59992188 5.91351563 1.68359375 6.73828125 C1.95265693 9.16087179 1.95265693 9.16087179 3 12 C2.01 12.33 1.02 12.66 0 13 C0 8.71 0 4.42 0 0 Z " fill="#0A93E6" transform="translate(93,114)"/>
<path d="M0 0 C0.99 0.99 1.98 1.98 3 3 C2.67 3.66 2.34 4.32 2 5 C1.34 4.67 0.68 4.34 0 4 C-0.33 4.66 -0.66 5.32 -1 6 C-1 5.01 -1 4.02 -1 3 C-2.32 2.67 -3.64 2.34 -5 2 C-3.35 1.34 -1.7 0.68 0 0 Z " fill="#A80F0F" transform="translate(185,70)"/>
<path d="M0 0 C2.64 0.33 5.28 0.66 8 1 C8 1.99 8 2.98 8 4 C5.33333333 3.33333333 2.66666667 2.66666667 0 2 C0 1.34 0 0.68 0 0 Z " fill="#B10A0E" transform="translate(155,168)"/>
<path d="M0 0 C1.98 0.495 1.98 0.495 4 1 C4 1.99 4 2.98 4 4 C4.99 4.33 5.98 4.66 7 5 C6.01 5.33 5.02 5.66 4 6 C3.34 5.01 2.68 4.02 2 3 C1.01 3 0.02 3 -1 3 C-0.67 2.01 -0.34 1.02 0 0 Z " fill="#BA3835" transform="translate(108,163)"/>
<path d="M0 0 C0.33 0.99 0.66 1.98 1 3 C-0.32 4.32 -1.64 5.64 -3 7 C-3.66 6.34 -4.32 5.68 -5 5 C-4.67 4.34 -4.34 3.68 -4 3 C-3.01 3 -2.02 3 -1 3 C-0.67 2.01 -0.34 1.02 0 0 Z " fill="#B03C3E" transform="translate(109,73)"/>
</svg>
